# xmcd
#
# Track frame offsets:
#	150
#	15386
#	27315
#	40368
#	52444
#	66957
#	85021
#	102118
#	118955
#	144804
#	161170
#	172915
#	185248
#	200339
#	213380
#	227154
#	247663
#	268375
#	278733
#	293221
#
# Disc length: 4115 seconds
#
# Revision: 1
# Processed by: cddbd v1.5.2PL0 Copyright (c) Steve Scherf et al.
# Submitted via: audiograbber 1.83.01
#
DISCID=29101114
DTITLE=Various Artist - Melodien für Millionen - Volare - CD2
DYEAR=2011
DGENRE=Pop
TTITLE0=Louis Armstrong - What a wonderful world
TTITLE1=Mel Torme - I've got you under my skin
TTITLE2=Bobby Darin - Beyond the sea
TTITLE3=The Mamas and The Papas - California dreamin'
TTITLE4=John Denver - Take me home, country roads
TTITLE5=Roger Whittaker (with Roland Shaw and his Orchestra) - The last farewell
TTITLE6=Tony Christie - Sweet september
TTITLE7=Marshall and Alexander - You've lost that lovin' feeling
TTITLE8=The Walker Brothers - No regrets
TTITLE9=The Righteous Brothers - Unchained melody
TTITLE10=Paul Anka - Put your head on my shoulder
TTITLE11=Elvis Presley - Love me tender
TTITLE12=Nilsson - Without you
TTITLE13=Barry Manilow - Mandy
TTITLE14=Johnny Logan - Hold me now
TTITLE15=Whitney Houston - I will always love you
TTITLE16=Leontyne Price - L'amour est un oiseau rebelle (Habanera)
TTITLE17=Placido Domingo - La donna è mobile
TTITLE18=Gary Puckett and The Union Gap - Young girl
TTITLE19=Engelbert Humperdinck - The last waltz
EXTD=
EXTT0=
EXTT1=
EXTT2=
EXTT3=
EXTT4=
EXTT5=
EXTT6=
EXTT7=
EXTT8=
EXTT9=
EXTT10=
EXTT11=
EXTT12=
EXTT13=
EXTT14=
EXTT15=
EXTT16=
EXTT17=
EXTT18=
EXTT19=
PLAYORDER=
